<?xml version="1.0" encoding="utf-8"?>
<svg viewBox="135.8077 28.1841 224.41 182.1056" xmlns="http://www.w3.org/2000/svg" xmlns:xlink="http://www.w3.org/1999/xlink">
  <defs>
    <linearGradient id="linear-gradient" x1="112.19" y1="-1.46" x2="112.19" y2="181.48" gradientUnits="userSpaceOnUse">
      <stop offset="0.1" stop-color="#18e0b5"/>
      <stop offset="0.18" stop-color="#16d8b8"/>
      <stop offset="0.31" stop-color="#13c2c2"/>
      <stop offset="0.47" stop-color="#0e9fd1"/>
      <stop offset="0.64" stop-color="#076fe7"/>
      <stop offset="0.69" stop-color="#0561ee"/>
      <stop offset="0.73" stop-color="#045ae7"/>
      <stop offset="1" stop-color="#003bc5"/>
    </linearGradient>
    <linearGradient id="linear-gradient-2" x1="45.31" y1="-1.46" x2="45.31" y2="181.48" xlink:href="#linear-gradient"/>
    <linearGradient id="linear-gradient-3" x1="76.6" y1="-1.46" x2="76.6" y2="181.48" xlink:href="#linear-gradient"/>
    <linearGradient id="linear-gradient-4" x1="147.79" y1="-1.46" x2="147.79" y2="181.48" xlink:href="#linear-gradient"/>
    <linearGradient id="linear-gradient-5" x1="112.19" y1="-5.46" x2="112.19" y2="177.48" xlink:href="#linear-gradient"/>
    <linearGradient id="linear-gradient-6" x1="179.08" x2="179.08" y2="181.48" xlink:href="#linear-gradient"/>
    <linearGradient id="linear-gradient-7" x1="52.64" y1="145.9" x2="30.95" y2="105.53" gradientUnits="userSpaceOnUse">
      <stop offset="0" stop-color="#0719a0"/>
      <stop offset="0.22" stop-color="#072db1" stop-opacity=".76"/>
      <stop offset="0.76" stop-color="#075bd8" stop-opacity=".22"/>
      <stop offset="1" stop-color="#076ee8" stop-opacity="0"/>
    </linearGradient>
    <linearGradient id="linear-gradient-8" x1="1644.94" y1="145.9" x2="1623.25" y2="105.53" gradientTransform="translate(1816.69) rotate(-180) scale(1 -1)" xlink:href="#linear-gradient-7"/>
    <linearGradient id="linear-gradient-9" x1="65.77" y1="181.87" x2="34.71" y2="114.73" xlink:href="#linear-gradient-7"/>
    <linearGradient id="linear-gradient-10" x1="1657.58" y1="181.87" x2="1626.52" y2="114.73" gradientTransform="translate(1816.2) rotate(-180) scale(1 -1)" xlink:href="#linear-gradient-7"/>
  </defs>
  <g class="cls-11" style="isolation: isolate;" transform="matrix(0.9999999999999999, 0, 0, 0.9999999999999999, 135.8277130126953, 28.184072494506836)">
    <g id="Layer_1" data-name="Layer 1">
      <path class="cls-5" d="m26.99,136.93c4.76,4.77,11.41,7.74,18.69,7.74s13.92-2.97,18.68-7.74c4.77-4.76,7.74-11.4,7.74-18.68V52.57c0-11.09,4.48-21.08,11.74-28.36,7.28-7.26,17.27-11.74,28.36-11.74s21.08,4.48,28.35,11.74c7.26,7.29,11.74,17.27,11.74,28.36v65.68c0,7.28,2.97,13.92,7.74,18.68,4.76,4.77,11.4,7.74,18.68,7.74s13.93-2.97,18.69-7.74c4.77-4.76,7.74-11.4,7.73-18.68v-27.03c0-3.44-2.79-6.23-6.23-6.23s-6.23,2.79-6.23,6.23v27.03c0,3.88-1.55,7.32-4.08,9.87-2.55,2.53-5.99,4.08-9.87,4.08s-7.32-1.55-9.86-4.08c-2.54-2.55-4.08-5.99-4.09-9.87V52.57c.01-14.51-5.89-27.68-15.39-37.17C139.87,5.89,126.69,0,112.2,0s-27.68,5.89-37.18,15.4c-9.5,9.49-15.4,22.66-15.39,37.17v65.68c-.01,3.88-1.55,7.32-4.09,9.87-2.54,2.53-5.99,4.08-9.86,4.08-1.94,0-3.77-.39-5.43-1.09-1.67-.7-3.17-1.72-4.44-2.99-2.53-2.55-4.08-5.99-4.08-9.87v-27.03c0-3.44-2.8-6.23-6.23-6.23s-6.23,2.79-6.23,6.23v27.07c0,2.96.49,5.8,1.41,8.47,1.31,3.88,3.5,7.35,6.32,10.16Z" style="fill: url('#linear-gradient'); stroke-width: 0px;"/>
      <path class="cls-7" d="m46.73,162.85c-9.07,0-17.8-2.73-25.25-7.37-6.84-4.27-12.64-10.19-16.48-17.29-.26-.45-.5-.91-.74-1.37-.03-.07-.06-.12-.09-.19-.06-.1-.11-.19-.16-.29-.02-.06-.06-.12-.09-.19-.02-.06-.06-.11-.08-.17-.14-.28-.27-.58-.4-.86-.11-.24-.22-.46-.31-.7h0c-1.48-3.55-2.49-7.33-2.91-11.26-.12-1.18-.2-2.38-.22-3.58h-.02v-7.08c0-1.17.33-2.27.9-3.2.26-.44.57-.84.93-1.2,1.12-1.13,2.69-1.82,4.41-1.82,2.28,0,4.26,1.21,5.34,3.03.57.93.9,2.03.9,3.2v6.49c0,1.42.11,2.8.33,4.17.09.59.2,1.17.35,1.76.07.33.15.66.23.97.14.52.29,1.04.46,1.55.11.32.22.62.32.92.09.26.2.53.32.79.52,1.33,1.16,2.61,1.88,3.85.43.75.9,1.47,1.41,2.2.25.36.5.71.77,1.07h0c.95,1.27,2.01,2.47,3.16,3.6.58.57,1.17,1.12,1.79,1.65.31.27.62.53.94.78,2.86,2.3,6.09,4.2,9.53,5.59,4.08,1.62,8.43,2.52,12.78,2.5,4.9,0,9.51-1.11,13.63-3.08,3.2-1.55,6.1-3.63,8.59-6.12.34-.33.67-.68.97-1.02.63-.7,1.25-1.42,1.82-2.16,3.73-4.88,6.04-10.86,6.36-17.39h0c.02-.34.03-.66.02-.99.01-.11.02-.23.01-.34.01-.1.01-.2.01-.31v-28.11l1.07-1.02,11.4-11.13v40.31c0,12.07-4.93,23.07-12.85,30.98-7.92,7.93-18.94,12.86-31.04,12.85Z" style="fill: url('#linear-gradient-2'); stroke-width: 0px;"/>
      <path class="cls-8" d="m104.36,65.3l4.8,1.96v53.44c0,8.97-1.82,17.39-5.16,24.91-3.34,7.52-8.17,14.15-14.11,19.6-10.32,9.5-23.96,15.47-38.98,16.86-.2.02-.4.02-.6.02-3.42,0-6.28-2.73-6.28-6.22,0-3.25,2.49-5.92,5.71-6.21,8.88-.83,17.04-3.56,23.97-7.8,8.39-5.13,14.95-12.43,18.89-21.3,2.63-5.93,4.09-12.58,4.09-19.87v-47.92l7.66-7.48Z" style="fill: url('#linear-gradient-3'); stroke-width: 0px;"/>
      <path class="cls-6" d="m178.72,171.66c1.02,1.11,1.64,2.6,1.64,4.2,0,3.65-3.13,6.55-6.75,6.22-10.75-.99-20.79-4.31-29.43-9.58-10.41-6.37-18.79-15.6-23.79-26.9-3.34-7.51-5.17-15.93-5.17-24.91v-50.96l7.29,2.97,5.18-3.95v51.95c0,7.29,1.47,13.94,4.09,19.87,2.63,5.93,6.43,11.13,11.15,15.48,8.2,7.55,19.26,12.47,31.74,13.62,1.61.15,3.03.9,4.05,1.99Z" style="fill: url('#linear-gradient-4'); stroke-width: 0px;"/>
      <polygon class="cls-9" points="133.76 57.14 127.69 61.79 122.06 66.09 115.22 63.29 109.16 60.81 103.84 58.64 96.7 65.6 96.7 65.57 96.69 65.57 96.69 65.58 90.62 71.48 90.62 71.51 78.16 83.66 78.16 71.57 80.92 68.97 81.69 68.25 102.02 49.31 120.86 57.03 146.22 37.64 146.22 47.63 133.76 57.14" style="fill: url('#linear-gradient-5'); stroke-width: 0px;"/>
      <path class="cls-10" d="m224.39,112.48v7.08h-.01c-.02,1.21-.09,2.4-.22,3.58-.05.5-.11.99-.18,1.47-.07.49-.15.97-.24,1.46-.22,1.12-.46,2.22-.76,3.3-.22.78-.45,1.55-.71,2.31-.12.36-.26.73-.39,1.09-.08.22-.17.44-.26.67-.01.07-.03.14-.07.19-.1.26-.2.52-.32.77-.09.24-.19.46-.31.7-.12.28-.26.58-.4.86s-.28.57-.42.85c-.15.29-.31.58-.46.87-.07.12-.15.26-.22.39-.07.12-.14.26-.22.39-.12.23-.26.45-.4.68-.88,1.62-1.92,3.16-3.04,4.65-5.29,6.96-12.53,12.39-20.73,15.66-5.46,2.19-11.37,3.4-17.41,3.4-12.1.01-23.12-4.92-31.04-12.85-7.86-7.85-12.78-18.75-12.85-30.72v-55.16l12.45-9.52v64.38s.01.31.01.31c0,.44.02.88.05,1.31h0c.01.31.03.6.06.88,0,.05,0,.08.01.11.02.25.05.5.07.75.03.35.07.69.12,1.04.05.31.09.61.15.92.02.16.05.31.08.46.02.15.06.29.09.45.06.31.11.61.19.91.06.24.11.48.17.7.12.49.26.96.41,1.44.18.59.37,1.17.59,1.73.14.37.28.75.44,1.11.14.34.28.67.44,1,.14.32.28.63.45.94.16.32.32.62.49.93.17.31.34.61.52.92.17.29.35.59.54.88.24.37.49.75.74,1.11.16.25.34.5.53.75.18.25.37.5.57.74.26.33.53.66.8.99.53.62,1.09,1.24,1.69,1.82.15.15.31.31.48.46.16.16.32.32.48.45.33.29.66.59,1,.87.17.15.33.28.5.42.17.15.34.28.52.41.35.27.7.54,1.07.79.31.22.61.43.93.63.02.03.03.05.06.05.11.09.23.16.34.22.12.1.26.18.39.25.02.01.05.03.07.03.12.08.25.16.37.23.16.1.32.19.48.27.25.15.5.28.74.42.73.4,1.46.76,2.22,1.08.18.09.36.17.54.24.26.11.52.22.79.32,1.01.39,2.04.71,3.09,1,.35.09.71.18,1.07.26.42.09.85.18,1.29.27.33.07.66.12.99.17.11.01.23.03.33.05.29.06.59.09.88.11.29.03.59.06.9.09.03.01.08.01.12.01.26.03.51.05.77.06.02.01.05.01.08,0h.01s.01.01.02,0c.23.02.46.03.7.03.08.01.14.01.23,0,0,0,.01.01.02,0,.01.01.02.01.03,0,.24.01.49.01.73.01h.12c.24,0,.49,0,.74-.01h.01c.08.01.17.01.25-.01.02.01.03.01.05,0t.02,0s.01.01.02,0t.02,0c.12-.01.25-.01.37-.02h.02c.17-.01.34,0,.51-.02.79-.03,1.58-.11,2.36-.23.03,0,.07-.01.1-.02.57-.08,1.12-.18,1.69-.29.22-.05.43-.08.63-.12.14-.02.27-.06.4-.09.56-.12,1.11-.25,1.65-.41.01.01.03.01.06-.01.12-.02.25-.06.39-.1.01,0,.03,0,.06-.02.17-.05.33-.09.5-.15.05,0,.1-.02.16-.05.31-.09.6-.18.91-.29.1-.02.19-.06.29-.1.19-.08.4-.16.6-.23.28-.1.57-.2.85-.32.07-.02.14-.06.2-.08.06-.03.12-.06.19-.09.39-.16.76-.32,1.13-.49.41-.18.82-.37,1.22-.58.34-.17.69-.35,1.03-.53.54-.28,1.08-.59,1.61-.92.28-.17.57-.35.85-.53.27-.17.52-.35.78-.53.42-.28.83-.58,1.24-.87.53-.4,1.07-.79,1.58-1.22.29-.24.59-.48.87-.74.19-.16.39-.33.58-.51.31-.27.6-.56.9-.85.2-.2.4-.41.6-.61.19-.2.4-.42.58-.62.18-.19.36-.4.56-.59.52-.6,1.03-1.21,1.51-1.85.18-.25.37-.5.54-.75.18-.25.36-.5.52-.76.35-.5.67-1.02.97-1.54.15-.25.29-.5.43-.75.36-.65.69-1.3,1-1.97.15-.32.29-.63.42-.95.1-.22.18-.43.26-.66.08-.18.15-.36.22-.56.17-.44.33-.9.45-1.36.16-.48.29-.96.41-1.45,0,0,.01-.01.01-.02.05-.11.08-.25.1-.37.02-.07.03-.15.05-.22h0c.14-.6.25-1.18.35-1.77.22-1.37.33-2.77.33-4.17v-6.49c0-3.43,2.79-6.22,6.23-6.22s6.23,2.79,6.23,6.22Z" style="fill: url('#linear-gradient-6'); stroke-width: 0px;"/>
      <path class="cls-1" d="m59.63,118.25v1.11c0,11.15-9.04,20.18-20.18,20.18-8.53,0-15.83-5.29-18.78-12.78-.91-2.29-1.41-4.78-1.41-7.4v-15.94h12.47v14.83c0,3.88,1.55,7.32,4.08,9.87,1.27,1.27,2.78,2.29,4.44,2.99,1.65.7,3.49,1.09,5.43,1.09,3.86,0,7.32-1.55,9.86-4.08,2.54-2.55,4.08-5.99,4.09-9.87Z" style="fill: url('#linear-gradient-7'); mix-blend-mode: multiply; stroke-width: 0px;"/>
      <path class="cls-3" d="m164.76,118.25v1.11c0,11.15,9.04,20.18,20.18,20.18,8.53,0,15.83-5.29,18.78-12.78.91-2.29,1.41-4.78,1.41-7.4v-15.94s-12.47,0-12.47,0v14.83c0,3.88-1.55,7.32-4.08,9.87-1.27,1.27-2.78,2.29-4.44,2.99-1.65.7-3.49,1.09-5.43,1.09-3.86,0-7.32-1.55-9.86-4.08-2.54-2.55-4.08-5.99-4.09-9.87Z" style="fill: url('#linear-gradient-8'); mix-blend-mode: multiply; stroke-width: 0px;"/>
      <path class="cls-2" d="m68.96,141.19c-5.7,5.7-13.52,9.2-22.22,9.2-4.35.01-8.7-.88-12.78-2.5-6.12-2.45-11.59-6.57-15.42-11.63-2.98-3.94-4.97-8.38-5.72-13.11H.23c.41,3.95,1.41,7.74,2.92,11.26.09.24.19.46.31.7.12.28.26.58.4.86s.28.57.42.85c6.47,12.64,19.63,21.28,34.8,21.28,21.04,0,38.21-16.65,39.04-37.5-.4,8.05-3.81,15.24-9.16,20.59Z" style="fill: url('#linear-gradient-9'); mix-blend-mode: multiply; stroke-width: 0px;"/>
      <path class="cls-4" d="m155.43,141.19c5.7,5.7,13.52,9.2,22.22,9.2,4.35.01,8.7-.88,12.78-2.5,6.12-2.45,11.59-6.57,15.42-11.63,2.98-3.94,4.97-8.38,5.72-13.11h12.58c-.41,3.95-1.41,7.74-2.92,11.26-.09.24-.19.46-.31.7-.12.28-.26.58-.4.86s-.28.57-.42.85c-6.47,12.64-19.63,21.28-34.8,21.28-21.04,0-38.21-16.65-39.04-37.5.4,8.05,3.81,15.24,9.16,20.59Z" style="fill: url('#linear-gradient-10'); mix-blend-mode: multiply; stroke-width: 0px;"/>
    </g>
  </g>
</svg>